<mxfile host="Electron" modified="2024-02-19T14:57:59.756Z" agent="Mozilla/5.0 (Windows NT 10.0; Win64; x64) AppleWebKit/537.36 (KHTML, like Gecko) draw.io/23.0.2 Chrome/120.0.6099.109 Electron/28.1.0 Safari/537.36" etag="j3jDQL4H1Wap7TMDNOOr" version="23.0.2" type="device">
  <diagram name="PÃ¡gina-1" id="3my4kGTsBPpca-9UO5Qm">
    <mxGraphModel dx="989" dy="589" grid="1" gridSize="10" guides="1" tooltips="1" connect="1" arrows="1" fold="1" page="1" pageScale="1" pageWidth="827" pageHeight="1169" math="0" shadow="0">
      <root>
        <mxCell id="0" />
        <mxCell id="1" parent="0" />
        <mxCell id="hO-pFNW-6zocB3J67L8K-18" value="" style="rounded=0;whiteSpace=wrap;html=1;" vertex="1" parent="1">
          <mxGeometry x="16.76" y="320" width="120" height="210" as="geometry" />
        </mxCell>
        <mxCell id="p7dhhZo90sLIvf3zW-VB-6" value="" style="edgeStyle=orthogonalEdgeStyle;rounded=0;orthogonalLoop=1;jettySize=auto;html=1;fillColor=#e3c800;strokeColor=#B09500;startArrow=classicThin;startFill=1;endArrow=classicThin;endFill=1;" parent="1" source="p7dhhZo90sLIvf3zW-VB-1" target="p7dhhZo90sLIvf3zW-VB-5" edge="1">
          <mxGeometry relative="1" as="geometry" />
        </mxCell>
        <mxCell id="hO-pFNW-6zocB3J67L8K-16" style="rounded=0;orthogonalLoop=1;jettySize=auto;html=1;strokeColor=#B09500;" edge="1" parent="1" source="p7dhhZo90sLIvf3zW-VB-1">
          <mxGeometry relative="1" as="geometry">
            <mxPoint x="330" y="140" as="targetPoint" />
          </mxGeometry>
        </mxCell>
        <mxCell id="p7dhhZo90sLIvf3zW-VB-1" value="" style="aspect=fixed;sketch=0;html=1;dashed=0;whitespace=wrap;fillColor=#2875E2;strokeColor=#ffffff;points=[[0.005,0.63,0],[0.1,0.2,0],[0.9,0.2,0],[0.5,0,0],[0.995,0.63,0],[0.72,0.99,0],[0.5,1,0],[0.28,0.99,0]];shape=mxgraph.kubernetes.icon2;kubernetesLabel=1;prIcon=api" parent="1" vertex="1">
          <mxGeometry x="240" y="202.23999999999998" width="50" height="48" as="geometry" />
        </mxCell>
        <mxCell id="p7dhhZo90sLIvf3zW-VB-4" value="" style="edgeStyle=orthogonalEdgeStyle;rounded=0;orthogonalLoop=1;jettySize=auto;html=1;fillColor=#e3c800;strokeColor=#B09500;" parent="1" source="p7dhhZo90sLIvf3zW-VB-2" target="p7dhhZo90sLIvf3zW-VB-1" edge="1">
          <mxGeometry relative="1" as="geometry" />
        </mxCell>
        <mxCell id="p7dhhZo90sLIvf3zW-VB-2" value="" style="image;aspect=fixed;html=1;points=[];align=center;fontSize=12;image=img/lib/azure2/management_governance/Managed_Desktop.svg;" parent="1" vertex="1">
          <mxGeometry x="100" y="199.29" width="58" height="53.91" as="geometry" />
        </mxCell>
        <mxCell id="p7dhhZo90sLIvf3zW-VB-5" value="" style="image;aspect=fixed;html=1;points=[];align=center;fontSize=12;image=img/lib/azure2/databases/Azure_Database_PostgreSQL_Server.svg;" parent="1" vertex="1">
          <mxGeometry x="380" y="200.91000000000003" width="38" height="50.67" as="geometry" />
        </mxCell>
        <mxCell id="hO-pFNW-6zocB3J67L8K-4" value="" style="edgeStyle=orthogonalEdgeStyle;rounded=0;orthogonalLoop=1;jettySize=auto;html=1;strokeColor=#B09500;" edge="1" parent="1">
          <mxGeometry relative="1" as="geometry">
            <mxPoint x="265" y="343.20000000000005" as="sourcePoint" />
            <mxPoint x="265" y="410.0000000000001" as="targetPoint" />
          </mxGeometry>
        </mxCell>
        <mxCell id="hO-pFNW-6zocB3J67L8K-1" value="&lt;font color=&quot;#b09500&quot;&gt;rabbitMq&lt;/font&gt;" style="shape=cylinder3;whiteSpace=wrap;html=1;boundedLbl=1;backgroundOutline=1;size=15;rotation=90;verticalAlign=middle;labelPosition=center;verticalLabelPosition=middle;align=center;horizontal=0;fillColor=#ffe6cc;strokeColor=#d79b00;" vertex="1" parent="1">
          <mxGeometry x="245" y="253.2" width="40" height="140" as="geometry" />
        </mxCell>
        <mxCell id="hO-pFNW-6zocB3J67L8K-2" style="rounded=0;orthogonalLoop=1;jettySize=auto;html=1;entryX=0;entryY=0.5;entryDx=0;entryDy=0;entryPerimeter=0;strokeColor=#B09500;" edge="1" parent="1" source="p7dhhZo90sLIvf3zW-VB-1" target="hO-pFNW-6zocB3J67L8K-1">
          <mxGeometry relative="1" as="geometry" />
        </mxCell>
        <mxCell id="hO-pFNW-6zocB3J67L8K-15" style="edgeStyle=orthogonalEdgeStyle;rounded=0;orthogonalLoop=1;jettySize=auto;html=1;strokeColor=#B09500;" edge="1" parent="1" source="hO-pFNW-6zocB3J67L8K-3" target="hO-pFNW-6zocB3J67L8K-1">
          <mxGeometry relative="1" as="geometry" />
        </mxCell>
        <mxCell id="hO-pFNW-6zocB3J67L8K-3" value="worker / websocket" style="outlineConnect=0;dashed=0;verticalLabelPosition=bottom;verticalAlign=top;align=center;html=1;shape=mxgraph.aws3.worker;fillColor=#D9A741;gradientColor=none;" vertex="1" parent="1">
          <mxGeometry x="242.5" y="410" width="45" height="43" as="geometry" />
        </mxCell>
        <mxCell id="hO-pFNW-6zocB3J67L8K-7" value="storage" style="sketch=0;dashed=0;connectable=0;html=1;fillColor=#5184F3;strokeColor=none;shape=mxgraph.gcp2.firebase;part=1;labelPosition=right;verticalLabelPosition=middle;align=left;verticalAlign=middle;spacingLeft=5;fontColor=#999999;fontSize=12;" vertex="1" parent="1">
          <mxGeometry x="330" y="109.99999999999999" width="22.4" height="31.11" as="geometry" />
        </mxCell>
        <mxCell id="hO-pFNW-6zocB3J67L8K-10" value="" style="image;aspect=fixed;html=1;points=[];align=center;fontSize=12;image=img/lib/azure2/management_governance/Managed_Desktop.svg;" vertex="1" parent="1">
          <mxGeometry x="53.52" y="400" width="46.48" height="43.2" as="geometry" />
        </mxCell>
        <mxCell id="hO-pFNW-6zocB3J67L8K-11" value="" style="image;aspect=fixed;html=1;points=[];align=center;fontSize=12;image=img/lib/azure2/management_governance/Managed_Desktop.svg;" vertex="1" parent="1">
          <mxGeometry x="53.52000000000001" y="470" width="46.48" height="43.2" as="geometry" />
        </mxCell>
        <mxCell id="hO-pFNW-6zocB3J67L8K-12" style="rounded=0;orthogonalLoop=1;jettySize=auto;html=1;entryX=0.978;entryY=0.394;entryDx=0;entryDy=0;entryPerimeter=0;endArrow=classicThin;endFill=1;startArrow=none;startFill=0;strokeColor=#B09500;" edge="1" parent="1" source="hO-pFNW-6zocB3J67L8K-3" target="hO-pFNW-6zocB3J67L8K-10">
          <mxGeometry relative="1" as="geometry" />
        </mxCell>
        <mxCell id="hO-pFNW-6zocB3J67L8K-13" style="rounded=0;orthogonalLoop=1;jettySize=auto;html=1;entryX=1;entryY=0.394;entryDx=0;entryDy=0;entryPerimeter=0;endArrow=classicThin;endFill=1;startArrow=none;startFill=0;strokeColor=#B09500;" edge="1" parent="1" source="hO-pFNW-6zocB3J67L8K-3" target="hO-pFNW-6zocB3J67L8K-11">
          <mxGeometry relative="1" as="geometry" />
        </mxCell>
        <mxCell id="hO-pFNW-6zocB3J67L8K-14" value="pedido" style="text;html=1;strokeColor=none;fillColor=none;align=center;verticalAlign=middle;whiteSpace=wrap;rounded=0;" vertex="1" parent="1">
          <mxGeometry x="260" y="260" width="50" height="20" as="geometry" />
        </mxCell>
        <mxCell id="hO-pFNW-6zocB3J67L8K-17" value="upload" style="text;html=1;strokeColor=none;fillColor=none;align=center;verticalAlign=middle;whiteSpace=wrap;rounded=0;" vertex="1" parent="1">
          <mxGeometry x="300" y="160" width="60" height="19.29" as="geometry" />
        </mxCell>
        <mxCell id="hO-pFNW-6zocB3J67L8K-19" value="entregadores logados" style="text;html=1;strokeColor=none;fillColor=none;align=center;verticalAlign=middle;whiteSpace=wrap;rounded=0;" vertex="1" parent="1">
          <mxGeometry x="46.75999999999999" y="330" width="60" height="30" as="geometry" />
        </mxCell>
      </root>
    </mxGraphModel>
  </diagram>
</mxfile>
